<svg xmlns="http://www.w3.org/2000/svg" viewBox="0 0 256 256"><defs><filter id="ln" x="-20%" y="-20%" width="140%" height="140%"><feMorphology in="SourceAlpha" operator="dilate" radius="3.2" result="d"/><feFlood flood-color="#0e3a66" result="f"/><feComposite in="f" in2="d" operator="in" result="o"/><feMerge><feMergeNode in="o"/><feMergeNode in="SourceGraphic"/></feMerge></filter></defs><g filter="url(#ln)" opacity="0.92"><ellipse cx="126" cy="166" rx="58" ry="28" fill="#7cc0ff"/><rect x="102" y="188" width="48" height="10" rx="4" fill="#7cc0ff"/><path d="M84 158 L44 132 L80 176 Z" fill="#7cc0ff" stroke-linecap="round" stroke-linejoin="round"/><path d="M108 144 Q126 124 144 144 Z" fill="#7cc0ff"/><rect x="119" y="122" width="14" height="14" rx="3" fill="#7cc0ff"/><path d="M182 158 Q216 156 210 182 Q206 196 186 190" fill="none" stroke="#7cc0ff" stroke-width="12" stroke-linecap="round" stroke-linejoin="round"/><path d="M52 122 Q34 100 54 84 Q74 70 56 50 Q47 38 64 26" fill="none" stroke="#7cc0ff" stroke-width="10" stroke-linecap="round" stroke-linejoin="round"/><path d="M150 56 L157 78 L179 85 L157 92 L150 114 L143 92 L121 85 L143 78 Z" fill="#7cc0ff" stroke-linecap="round" stroke-linejoin="round"/></g></svg>