<svg xmlns="http://www.w3.org/2000/svg" viewBox="0 0 256 256"><g opacity="1"><g transform="translate(3.0,4.0)" opacity="0.55"><circle cx="128.0" cy="128.0" r="13.0" fill="none" stroke="#3f4855" stroke-width="12"/><line x1="128.0" y1="115.0" x2="128.0" y2="54.0" stroke="#3f4855" stroke-width="11" stroke-linecap="round"/><circle cx="128.0" cy="54.0" r="9.0" fill="#3f4855"/><line x1="138.2" y1="119.9" x2="185.9" y2="81.9" stroke="#3f4855" stroke-width="11" stroke-linecap="round"/><circle cx="185.9" cy="81.9" r="9.0" fill="#3f4855"/><line x1="140.7" y1="130.9" x2="200.1" y2="144.5" stroke="#3f4855" stroke-width="11" stroke-linecap="round"/><circle cx="200.1" cy="144.5" r="9.0" fill="#3f4855"/><line x1="133.6" y1="139.7" x2="160.1" y2="194.7" stroke="#3f4855" stroke-width="11" stroke-linecap="round"/><circle cx="160.1" cy="194.7" r="9.0" fill="#3f4855"/><line x1="122.4" y1="139.7" x2="95.9" y2="194.7" stroke="#3f4855" stroke-width="11" stroke-linecap="round"/><circle cx="95.9" cy="194.7" r="9.0" fill="#3f4855"/><line x1="115.3" y1="130.9" x2="55.9" y2="144.5" stroke="#3f4855" stroke-width="11" stroke-linecap="round"/><circle cx="55.9" cy="144.5" r="9.0" fill="#3f4855"/><line x1="117.8" y1="119.9" x2="70.1" y2="81.9" stroke="#3f4855" stroke-width="11" stroke-linecap="round"/><circle cx="70.1" cy="81.9" r="9.0" fill="#3f4855"/><path d="M128.0 54.0 L185.9 81.9 L200.1 144.5 L160.1 194.7 L95.9 194.7 L55.9 144.5 L70.1 81.9 Z" fill="none" stroke="#3f4855" stroke-width="9" stroke-linecap="round" stroke-linejoin="round"/></g><circle cx="128.0" cy="128.0" r="13.0" fill="none" stroke="#6a9fd8" stroke-width="12"/><line x1="128.0" y1="115.0" x2="128.0" y2="54.0" stroke="#6a9fd8" stroke-width="11" stroke-linecap="round"/><circle cx="128.0" cy="54.0" r="9.0" fill="#6a9fd8"/><line x1="138.2" y1="119.9" x2="185.9" y2="81.9" stroke="#6a9fd8" stroke-width="11" stroke-linecap="round"/><circle cx="185.9" cy="81.9" r="9.0" fill="#6a9fd8"/><line x1="140.7" y1="130.9" x2="200.1" y2="144.5" stroke="#6a9fd8" stroke-width="11" stroke-linecap="round"/><circle cx="200.1" cy="144.5" r="9.0" fill="#6a9fd8"/><line x1="133.6" y1="139.7" x2="160.1" y2="194.7" stroke="#6a9fd8" stroke-width="11" stroke-linecap="round"/><circle cx="160.1" cy="194.7" r="9.0" fill="#6a9fd8"/><line x1="122.4" y1="139.7" x2="95.9" y2="194.7" stroke="#6a9fd8" stroke-width="11" stroke-linecap="round"/><circle cx="95.9" cy="194.7" r="9.0" fill="#6a9fd8"/><line x1="115.3" y1="130.9" x2="55.9" y2="144.5" stroke="#6a9fd8" stroke-width="11" stroke-linecap="round"/><circle cx="55.9" cy="144.5" r="9.0" fill="#6a9fd8"/><line x1="117.8" y1="119.9" x2="70.1" y2="81.9" stroke="#6a9fd8" stroke-width="11" stroke-linecap="round"/><circle cx="70.1" cy="81.9" r="9.0" fill="#6a9fd8"/><path d="M128.0 54.0 L185.9 81.9 L200.1 144.5 L160.1 194.7 L95.9 194.7 L55.9 144.5 L70.1 81.9 Z" fill="none" stroke="#6a9fd8" stroke-width="9" stroke-linecap="round" stroke-linejoin="round"/></g></svg>