<svg xmlns="http://www.w3.org/2000/svg" viewBox="0 0 256 256"><g opacity="1"><g transform="translate(3.0,4.0)" opacity="0.55"><rect x="58" y="70" width="140" height="36" rx="10" fill="none" stroke="#3f4855" stroke-width="10"/><rect x="58" y="116" width="140" height="36" rx="10" fill="none" stroke="#3f4855" stroke-width="10"/><rect x="58" y="162" width="140" height="36" rx="10" fill="none" stroke="#3f4855" stroke-width="10"/><rect x="78" y="82" width="64" height="9" rx="4.5" fill="#3f4855" opacity="0.95"/><rect x="78" y="128" width="50" height="9" rx="4.5" fill="#3f4855" opacity="0.6"/><rect x="78" y="174" width="40" height="9" rx="4.5" fill="#3f4855" opacity="0.35"/><path d="M186 88 C 216 88, 224 62, 224 46" fill="none" stroke="#3f4855" stroke-width="9" stroke-linecap="round" stroke-linejoin="round"/><circle cx="186.0" cy="88.0" r="7.0" fill="#3f4855"/><circle cx="224.0" cy="40.0" r="9.0" fill="#3f4855"/></g><rect x="58" y="70" width="140" height="36" rx="10" fill="none" stroke="#4cb98a" stroke-width="10"/><rect x="58" y="116" width="140" height="36" rx="10" fill="none" stroke="#4cb98a" stroke-width="10"/><rect x="58" y="162" width="140" height="36" rx="10" fill="none" stroke="#4cb98a" stroke-width="10"/><rect x="78" y="82" width="64" height="9" rx="4.5" fill="#4cb98a" opacity="0.95"/><rect x="78" y="128" width="50" height="9" rx="4.5" fill="#4cb98a" opacity="0.6"/><rect x="78" y="174" width="40" height="9" rx="4.5" fill="#4cb98a" opacity="0.35"/><path d="M186 88 C 216 88, 224 62, 224 46" fill="none" stroke="#4cb98a" stroke-width="9" stroke-linecap="round" stroke-linejoin="round"/><circle cx="186.0" cy="88.0" r="7.0" fill="#f0c674"/><circle cx="224.0" cy="40.0" r="9.0" fill="#f0c674"/></g></svg>