<svg xmlns="http://www.w3.org/2000/svg" viewBox="0 0 256 256"><defs><linearGradient id="slate" x1="0" y1="0" x2="0" y2="1">
<stop offset="0" stop-color="#243049"/><stop offset="1" stop-color="#141a26"/>
</linearGradient></defs>
<rect x="8" y="8" width="240" height="240" rx="58" fill="url(#slate)"/>
<rect x="8.75" y="8.75" width="238.5" height="238.5" rx="57.25" fill="none"
 stroke="#c9a04a" stroke-opacity="0.30" stroke-width="1.5"/><path d="M92 104 H164 A52 52 0 0 1 210 172 A26 26 0 0 1 168 184 L150 164 H106 L88 184 A26 26 0 0 1 46 172 A52 52 0 0 1 92 104 Z" fill="none" stroke="#c9a04a" stroke-width="11" stroke-linecap="round" stroke-linejoin="round"/><line x1="80.0" y1="142.0" x2="108.0" y2="142.0" stroke="#c9a04a" stroke-width="10" stroke-linecap="round"/><line x1="94.0" y1="128.0" x2="94.0" y2="156.0" stroke="#c9a04a" stroke-width="10" stroke-linecap="round"/><circle cx="168.0" cy="130.0" r="7.0" fill="#c9a04a"/><circle cx="188.0" cy="150.0" r="7.0" fill="#c9a04a"/></svg>