<svg xmlns="http://www.w3.org/2000/svg" viewBox="0 0 256 256"><defs><linearGradient id="slate" x1="0" y1="0" x2="0" y2="1">
<stop offset="0" stop-color="#243049"/><stop offset="1" stop-color="#141a26"/>
</linearGradient></defs>
<rect x="8" y="8" width="240" height="240" rx="58" fill="url(#slate)"/>
<rect x="8.75" y="8.75" width="238.5" height="238.5" rx="57.25" fill="none"
 stroke="#c9a04a" stroke-opacity="0.30" stroke-width="1.5"/><path d="M70 76 H186 A22 22 0 0 1 208 98 V152 A22 22 0 0 1 186 174 H120 L92 200 V174 H70 A22 22 0 0 1 48 152 V98 A22 22 0 0 1 70 76 Z" fill="none" stroke="#c9a04a" stroke-width="11" stroke-linecap="round" stroke-linejoin="round"/><path d="M139 104 L147 126 L169 134 L147 142 L139 164 L131 142 L109 134 L131 126 Z" fill="#c9a04a" stroke-linecap="round" stroke-linejoin="round"/></svg>