<svg xmlns="http://www.w3.org/2000/svg" viewBox="0 0 256 256"><g opacity="1"><path d="M72 96 V122 A46 15 0 0 0 164 122 V96" fill="none" stroke="#5ab0ff" stroke-width="11" stroke-linecap="round" stroke-linejoin="round"/><ellipse cx="118" cy="96" rx="46" ry="15" fill="none" stroke="#5ab0ff" stroke-width="9"/><path d="M72 124 V150 A46 15 0 0 0 164 150 V124" fill="none" stroke="#5ab0ff" stroke-width="11" stroke-linecap="round" stroke-linejoin="round"/><ellipse cx="118" cy="124" rx="46" ry="15" fill="none" stroke="#5ab0ff" stroke-width="9"/><path d="M72 152 V178 A46 15 0 0 0 164 178 V152" fill="none" stroke="#5ab0ff" stroke-width="11" stroke-linecap="round" stroke-linejoin="round"/><ellipse cx="118" cy="152" rx="46" ry="15" fill="none" stroke="#5ab0ff" stroke-width="9"/><line x1="200.0" y1="182.0" x2="212.0" y2="182.0" stroke="#5ab0ff" stroke-width="8" stroke-linecap="round"/><line x1="194.7" y1="194.7" x2="203.2" y2="203.2" stroke="#5ab0ff" stroke-width="8" stroke-linecap="round"/><line x1="182.0" y1="200.0" x2="182.0" y2="212.0" stroke="#5ab0ff" stroke-width="8" stroke-linecap="round"/><line x1="169.3" y1="194.7" x2="160.8" y2="203.2" stroke="#5ab0ff" stroke-width="8" stroke-linecap="round"/><line x1="164.0" y1="182.0" x2="152.0" y2="182.0" stroke="#5ab0ff" stroke-width="8" stroke-linecap="round"/><line x1="169.3" y1="169.3" x2="160.8" y2="160.8" stroke="#5ab0ff" stroke-width="8" stroke-linecap="round"/><line x1="182.0" y1="164.0" x2="182.0" y2="152.0" stroke="#5ab0ff" stroke-width="8" stroke-linecap="round"/><line x1="194.7" y1="169.3" x2="203.2" y2="160.8" stroke="#5ab0ff" stroke-width="8" stroke-linecap="round"/><circle cx="182.0" cy="182.0" r="18.0" fill="none" stroke="#5ab0ff" stroke-width="9"/><circle cx="182.0" cy="182.0" r="6.0" fill="#5ab0ff"/></g></svg>